<?xml version="1.0" encoding="utf-8"?>
<!-- Generator: Adobe Illustrator 17.1.0, SVG Export Plug-In . SVG Version: 6.00 Build 0)  -->
<!DOCTYPE svg PUBLIC "-//W3C//DTD SVG 1.1//EN" "http://www.w3.org/Graphics/SVG/1.1/DTD/svg11.dtd">
<svg version="1.1" id="Layer_1" xmlns="http://www.w3.org/2000/svg" xmlns:xlink="http://www.w3.org/1999/xlink" x="0px" y="0px" height="22" width="30"
	 viewBox="0 0 30 22" style="enable-background:new 0 0 30 22;" xml:space="preserve">
<style type="text/css">
	.st0{fill:#37A7C5;}
	.st1{fill:#35A7C6;}
</style>
<g>
	<path class="st0" d="M5.789,13.982c-0.171,0-0.307-0.13-0.307-0.294V8.739H0.307C0.136,8.739,0,8.609,0,8.445V5.537
		c0-0.164,0.136-0.294,0.307-0.294h5.175V0.294C5.482,0.13,5.617,0,5.789,0h3.041c0.171,0,0.307,0.13,0.307,0.294v4.949h5.175
		c0.171,0,0.307,0.13,0.307,0.294v2.908c0,0.164-0.136,0.294-0.307,0.294H9.136v4.949c0,0.164-0.136,0.294-0.307,0.294H5.789z"/>
</g>
<g>
	<path class="st1" d="M29.854,21.612c0,0.216-0.172,0.388-0.388,0.388H11.772c-0.216,0-0.388-0.172-0.388-0.388v-0.767
		c0-3.851,6.926-3.075,6.926-6.159c0,0-2.309-2.309-2.309-6.538c0-2.543,2.074-4.617,4.617-4.617s4.617,2.074,4.617,4.617
		c0,4.229-2.309,6.538-2.309,6.538c0,3.084,6.926,2.309,6.926,6.159V21.612z"/>
</g>
</svg>
