<?xml version="1.0" encoding="utf-8"?>
<!-- Generator: Adobe Illustrator 17.1.0, SVG Export Plug-In . SVG Version: 6.00 Build 0)  -->
<!DOCTYPE svg PUBLIC "-//W3C//DTD SVG 1.1//EN" "http://www.w3.org/Graphics/SVG/1.1/DTD/svg11.dtd">
<svg version="1.1" id="Layer_1" xmlns="http://www.w3.org/2000/svg" xmlns:xlink="http://www.w3.org/1999/xlink" x="0px" y="0px" width="30" height="22"
	 viewBox="0 0 30 22" style="enable-background:new 0 0 30 22;" xml:space="preserve">
<style type="text/css">
	.st0{fill:#37A7C5;}
</style>
<g>
	<path class="st0" d="M16.456,22h-4.645c-0.218,0-0.39-0.165-0.39-0.373v-10.36c0-0.208,0.172-0.373,0.39-0.373h4.645
		c0.209,0,0.381,0.165,0.381,0.373v10.36C16.837,21.835,16.664,22,16.456,22z M29.61,4.23H18.778c-0.218,0-0.39,0.165-0.39,0.373
		v17.024c0,0.208,0.172,0.373,0.39,0.373h4.255v-3.332h2.322V22h4.255c0.218,0,0.39-0.165,0.39-0.373V4.603
		C30,4.395,29.828,4.23,29.61,4.23z M23.033,9.783H20.71V7.562h2.322V9.783z M23.033,15.336H20.71v-2.221h2.322V15.336z
		 M27.678,9.783h-2.322V7.562h2.322V9.783z M27.678,15.336h-2.322v-2.221h2.322V15.336z"/>
</g>
<g>
	<path class="st0" d="M5.789,13.982c-0.171,0-0.307-0.13-0.307-0.294V8.739H0.307C0.136,8.739,0,8.609,0,8.445V5.537
		c0-0.164,0.136-0.294,0.307-0.294h5.175V0.294C5.482,0.13,5.617,0,5.789,0h3.041c0.171,0,0.307,0.13,0.307,0.294v4.949h5.175
		c0.171,0,0.307,0.13,0.307,0.294v2.908c0,0.164-0.136,0.294-0.307,0.294H9.136v4.949c0,0.164-0.136,0.294-0.307,0.294H5.789z"/>
</g>
</svg>
