<?xml version="1.0" encoding="utf-8"?>
<!-- Generator: Adobe Illustrator 17.1.0, SVG Export Plug-In . SVG Version: 6.00 Build 0)  -->
<!DOCTYPE svg PUBLIC "-//W3C//DTD SVG 1.1//EN" "http://www.w3.org/Graphics/SVG/1.1/DTD/svg11.dtd">
<svg version="1.1" id="Layer_1" xmlns="http://www.w3.org/2000/svg" xmlns:xlink="http://www.w3.org/1999/xlink" x="0px" y="0px" width="48" height="48"
	 viewBox="0 0 48 48" style="enable-background:new 0 0 48 48;" xml:space="preserve">
<style type="text/css">
	.st0{fill:#FFFFFF;}
	.st1{fill:none;}
</style>
<path class="st0" d="M21.35,6.613L3.751,24.212c-0.083,0.083-0.117,0.15-0.15,0.234l-3.57,8.941
	c-0.067,0.267-0.033,0.584,0.167,0.784c0.15,0.117,0.317,0.2,0.517,0.2c0.067,0,0.15,0,0.267-0.033l8.941-3.57
	c0.083-0.033,0.15-0.067,0.234-0.15l17.599-17.599L21.35,6.613z"/>
<path class="st0" d="M30.175,0.841c-0.442-0.417-0.997-0.626-1.545-0.626s-1.091,0.209-1.508,0.626l-3.637,3.637l6.406,6.406
	l3.637-3.637c0.834-0.834,0.834-2.169,0-3.053L30.175,0.841z"/>
<path class="st1" d="M33.528,7.247c0.834-0.834,0.834-2.169,0-3.053l-3.353-3.353c-0.442-0.417-0.997-0.626-1.545-0.626
	s-1.091,0.209-1.508,0.626l-3.637,3.637l6.406,6.406L33.528,7.247z"/>
<path class="st1" d="M31.359,39.459c-1.184,0-2.135,0.951-2.135,2.135s0.951,2.135,2.135,2.135c1.184,0,2.135-0.951,2.135-2.135
	S32.543,39.459,31.359,39.459z"/>
<path class="st1" d="M21.35,6.613L3.751,24.212c-0.083,0.083-0.117,0.15-0.15,0.234l-3.57,8.941
	c-0.067,0.267-0.033,0.584,0.167,0.784c0.15,0.117,0.317,0.2,0.517,0.2c0.067,0,0.15,0,0.267-0.033l8.941-3.57
	c0.083-0.033,0.15-0.067,0.234-0.15l3.09-3.09l1.747-11.873c0.15-1.034,1.068-1.818,2.135-1.818h9.809l0.817-0.817L21.35,6.613z"/>
<path class="st1" d="M39.9,39.459c-1.184,0-2.135,0.951-2.135,2.135s0.951,2.135,2.135,2.135s2.135-0.951,2.135-2.135
	S41.084,39.459,39.9,39.459z"/>
<path class="st0" d="M44.171,35.189H14.277c-1.184,0-2.135,0.951-2.135,2.135v8.541c0,1.184,0.951,2.135,2.135,2.135h29.893
	c1.184,0,2.135-0.951,2.135-2.135v-8.541C46.306,36.139,45.355,35.189,44.171,35.189z M31.359,43.73
	c-1.184,0-2.135-0.951-2.135-2.135s0.951-2.135,2.135-2.135c1.184,0,2.135,0.951,2.135,2.135S32.543,43.73,31.359,43.73z
	 M39.9,43.73c-1.184,0-2.135-0.951-2.135-2.135s0.951-2.135,2.135-2.135s2.135,0.951,2.135,2.135S41.084,43.73,39.9,43.73z"/>
<path class="st0" d="M29.769,15.032L12.552,32.249l-0.06,0.404c0.567-0.2,1.151-0.317,1.785-0.317h29.893
	c0.634,0,1.218,0.117,1.785,0.317L43.42,15.655c-0.167-1.034-1.034-1.818-2.102-1.818H30.964l-0.128,0.128L29.769,15.032z"/>
</svg>
